<?xml version="1.0" encoding="UTF-8" standalone="no"?><svg xmlns="http://www.w3.org/2000/svg" xmlns:xlink="http://www.w3.org/1999/xlink" contentScriptType="application/ecmascript" contentStyleType="text/css" height="573px" preserveAspectRatio="none" style="width:488px;height:573px;" version="1.1" viewBox="0 0 488 573" width="488px" zoomAndPan="magnify"><defs><filter height="300%" id="f1cfhnctxkaa1v" width="300%" x="-1" y="-1"><feGaussianBlur result="blurOut" stdDeviation="2.0"/><feColorMatrix in="blurOut" result="blurOut2" type="matrix" values="0 0 0 0 0 0 0 0 0 0 0 0 0 0 0 0 0 0 .4 0"/><feOffset dx="4.0" dy="4.0" in="blurOut2" result="blurOut3"/><feBlend in="SourceGraphic" in2="blurOut3" mode="normal"/></filter></defs><g><!--MD5=[262aabfe314dcb38308ea550cce12173]
cluster Some Group--><polygon fill="#FFFFFF" filter="url(#f1cfhnctxkaa1v)" points="16,6,109,6,116,29.6094,450,29.6094,450,106,16,106,16,6" style="stroke:#000000;stroke-width:1.5;"/><line style="stroke:#000000;stroke-width:1.5;" x1="16" x2="116" y1="29.6094" y2="29.6094"/><text fill="#000000" font-family="sans-serif" font-size="14" font-weight="bold" lengthAdjust="spacing" textLength="87" x="20" y="22.5332">Some Group</text><!--MD5=[a809f7b457cbc4d947186a4bb863b06b]
cluster Other Groups--><polygon fill="#FFFFFF" filter="url(#f1cfhnctxkaa1v)" points="48,140,58,130,299,130,299,225,289,235,48,235,48,140" style="stroke:#000000;stroke-width:1.5;"/><line style="stroke:#000000;stroke-width:1.5;" x1="289" x2="299" y1="140" y2="130"/><line style="stroke:#000000;stroke-width:1.5;" x1="48" x2="289" y1="140" y2="140"/><line style="stroke:#000000;stroke-width:1.5;" x1="289" x2="289" y1="140" y2="235"/><text fill="#000000" font-family="sans-serif" font-size="14" font-weight="bold" lengthAdjust="spacing" textLength="96" x="121.5" y="157.5332">Other Groups</text><path d="M332.1359,164.4873 C334.5583,158.6235 340.4715,157.1038 344.6022,162.6152 C348.5071,156.3226 354.3622,157.1219 357.3811,163.5082 C360.2236,156.9952 364.3465,157.7901 368.6425,161.9787 C373.9479,155.5834 377.962,157.492 381.9963,163.3626 C384.9893,157.5547 388.8185,156.1851 393.4347,161.7268 C397.4641,156.7729 401.8804,157.2802 404.7513,162.9598 C408.6165,156.9986 412.9911,155.8223 417.7851,161.9592 C421.9437,155.4212 427.3543,157.5002 430.4656,163.0571 C433.8296,156.6006 439.8081,156.3681 442.9871,163.2309 C446.6284,159.2997 450.2333,159.2742 453.1262,164.0978 C462.2497,166.6852 461.7588,173.4999 456.6593,179.3764 C465.0106,183.3799 466.2887,190.4773 459.7244,197.0654 C465.937,204.0643 464.5068,208.8528 456.4927,212.9589 C462.9959,218.8051 462.0923,226.1338 453.4353,229.1103 C450.3223,234.1941 446.0122,233.4718 442.8459,229.1705 C440.9515,236.4683 435.3457,237.8596 430.4355,232.0191 C426.7782,238.7713 421.1029,237.633 417.453,232.0112 C414.5089,237.9828 409.5463,239.6155 405.0307,233.6461 C403.0889,240.122 397.9353,241.4305 393.5199,236.047 C388.1031,241.7031 382.9878,241.7891 380.0422,233.6352 C375.3517,238.3225 371.0225,237.9805 368.1787,231.6473 C363.6791,237.6758 360.0684,235.738 356.4602,230.7032 C353.0518,236.6777 346.5295,237.2761 343.2001,230.6203 C337.9553,234.7569 334.0343,234.443 331.7996,227.518 C323.1781,224.1366 322.7929,217.2047 328.8269,211.16 C321.2453,207.5518 320.569,202.1616 326.5935,196.4829 C318.5146,189.6644 320.0228,183.4457 329.129,179.1396 C322.6516,173.3821 324.7083,167.3913 332.1359,164.4873 " fill="#FFFFFF" filter="url(#f1cfhnctxkaa1v)" style="stroke:#000000;stroke-width:1.5;"/><!--MD5=[a8e31809c94bd3920922c17a126bb0b3]
cluster MySql--><path d="M303,269 C303,259 392,259 392,259 C392,259 481,259 481,269 L481,556 C481,566 392,566 392,566 C392,566 303,566 303,556 L303,269 " fill="#FFFFFF" filter="url(#f1cfhnctxkaa1v)" style="stroke:#000000;stroke-width:1.5;"/><path d="M303,269 C303,279 392,279 392,279 C392,279 481,279 481,269 " fill="none" style="stroke:#000000;stroke-width:1.5;"/><text fill="#000000" font-family="sans-serif" font-size="14" font-weight="bold" lengthAdjust="spacing" textLength="42" x="371" y="295.5332">MySql</text><!--MD5=[57a7dd60b0970f41fd8892a58576fbc8]
cluster This is my folder--><polygon fill="#FFFFFF" filter="url(#f1cfhnctxkaa1v)" points="327,318,447,318,454,341.6094,457,341.6094,457,418,327,418,327,318" style="stroke:#000000;stroke-width:1.5;"/><line style="stroke:#000000;stroke-width:1.5;" x1="327" x2="454" y1="341.6094" y2="341.6094"/><text fill="#000000" font-family="sans-serif" font-size="14" font-weight="bold" lengthAdjust="spacing" textLength="114" x="331" y="334.5332">This is my folder</text><!--MD5=[b098bf3b49ab5940c6091a421f0675e2]
cluster Foo--><rect fill="#FFFFFF" filter="url(#f1cfhnctxkaa1v)" height="100" style="stroke:#000000;stroke-width:1.5;" width="126" x="329" y="442"/><path d="M366,442 L366,452.6094 L356,462.6094 L329,462.6094 " fill="none" style="stroke:#000000;stroke-width:1.5;"/><text fill="#000000" font-family="sans-serif" font-size="14" font-weight="bold" lengthAdjust="spacing" textLength="27" x="332" y="457.5332">Foo</text><!--MD5=[96f7e1299d4a43069e6ed32352fcac20]
entity HTTP--><ellipse cx="222" cy="66" fill="#FEFECE" filter="url(#f1cfhnctxkaa1v)" rx="8" ry="8" style="stroke:#A80036;stroke-width:1.5;"/><text fill="#000000" font-family="sans-serif" font-size="14" lengthAdjust="spacing" textLength="36" x="204" y="97.5332">HTTP</text><!--MD5=[cbd7cda55f2530e2efe43ec72c097853]
entity First Component--><rect fill="#FEFECE" filter="url(#f1cfhnctxkaa1v)" height="47.6094" style="stroke:#A80036;stroke-width:1.5;" width="145" x="32.5" y="42"/><rect fill="#FEFECE" height="10" style="stroke:#A80036;stroke-width:1.5;" width="15" x="157.5" y="47"/><rect fill="#FEFECE" height="2" style="stroke:#A80036;stroke-width:1.5;" width="4" x="155.5" y="49"/><rect fill="#FEFECE" height="2" style="stroke:#A80036;stroke-width:1.5;" width="4" x="155.5" y="53"/><text fill="#000000" font-family="sans-serif" font-size="14" lengthAdjust="spacing" textLength="105" x="47.5" y="76.5332">First Component</text><!--MD5=[b9d11f23832c1491231c5b33e55ab8c6]
entity Another Component--><rect fill="#FEFECE" filter="url(#f1cfhnctxkaa1v)" height="47.6094" style="stroke:#A80036;stroke-width:1.5;" width="167" x="266.5" y="42"/><rect fill="#FEFECE" height="10" style="stroke:#A80036;stroke-width:1.5;" width="15" x="413.5" y="47"/><rect fill="#FEFECE" height="2" style="stroke:#A80036;stroke-width:1.5;" width="4" x="411.5" y="49"/><rect fill="#FEFECE" height="2" style="stroke:#A80036;stroke-width:1.5;" width="4" x="411.5" y="53"/><text fill="#000000" font-family="sans-serif" font-size="14" lengthAdjust="spacing" textLength="127" x="281.5" y="76.5332">Another Component</text><!--MD5=[76af18d92d7d7c0f7ebd8f4f605ac5aa]
entity FTP--><ellipse cx="73" cy="195" fill="#FEFECE" filter="url(#f1cfhnctxkaa1v)" rx="8" ry="8" style="stroke:#A80036;stroke-width:1.5;"/><text fill="#000000" font-family="sans-serif" font-size="14" lengthAdjust="spacing" textLength="27" x="59.5" y="226.5332">FTP</text><!--MD5=[0e2cc1aee2c7f52697e111b4fb84546c]
entity Second Component--><rect fill="#FEFECE" filter="url(#f1cfhnctxkaa1v)" height="47.6094" style="stroke:#A80036;stroke-width:1.5;" width="165" x="117.5" y="171"/><rect fill="#FEFECE" height="10" style="stroke:#A80036;stroke-width:1.5;" width="15" x="262.5" y="176"/><rect fill="#FEFECE" height="2" style="stroke:#A80036;stroke-width:1.5;" width="4" x="260.5" y="178"/><rect fill="#FEFECE" height="2" style="stroke:#A80036;stroke-width:1.5;" width="4" x="260.5" y="182"/><text fill="#000000" font-family="sans-serif" font-size="14" lengthAdjust="spacing" textLength="125" x="132.5" y="205.5332">Second Component</text><!--MD5=[243c1e580c31013c48b02624e18b25a7]
entity Example 1--><rect fill="#FEFECE" filter="url(#f1cfhnctxkaa1v)" height="47.6094" style="stroke:#A80036;stroke-width:1.5;" width="105" x="339.5" y="171"/><rect fill="#FEFECE" height="10" style="stroke:#A80036;stroke-width:1.5;" width="15" x="424.5" y="176"/><rect fill="#FEFECE" height="2" style="stroke:#A80036;stroke-width:1.5;" width="4" x="422.5" y="178"/><rect fill="#FEFECE" height="2" style="stroke:#A80036;stroke-width:1.5;" width="4" x="422.5" y="182"/><text fill="#000000" font-family="sans-serif" font-size="14" lengthAdjust="spacing" textLength="65" x="354.5" y="205.5332">Example 1</text><!--MD5=[3e0e08c92570480402984701ab5a6d2d]
entity Folder 3--><rect fill="#FEFECE" filter="url(#f1cfhnctxkaa1v)" height="47.6094" style="stroke:#A80036;stroke-width:1.5;" width="93" x="345.5" y="354"/><rect fill="#FEFECE" height="10" style="stroke:#A80036;stroke-width:1.5;" width="15" x="418.5" y="359"/><rect fill="#FEFECE" height="2" style="stroke:#A80036;stroke-width:1.5;" width="4" x="416.5" y="361"/><rect fill="#FEFECE" height="2" style="stroke:#A80036;stroke-width:1.5;" width="4" x="416.5" y="365"/><text fill="#000000" font-family="sans-serif" font-size="14" lengthAdjust="spacing" textLength="53" x="360.5" y="388.5332">Folder 3</text><!--MD5=[63877ed85df621d134a6c80fb52dad56]
entity Frame 4--><rect fill="#FEFECE" filter="url(#f1cfhnctxkaa1v)" height="47.6094" style="stroke:#A80036;stroke-width:1.5;" width="93" x="345.5" y="478"/><rect fill="#FEFECE" height="10" style="stroke:#A80036;stroke-width:1.5;" width="15" x="418.5" y="483"/><rect fill="#FEFECE" height="2" style="stroke:#A80036;stroke-width:1.5;" width="4" x="416.5" y="485"/><rect fill="#FEFECE" height="2" style="stroke:#A80036;stroke-width:1.5;" width="4" x="416.5" y="489"/><text fill="#000000" font-family="sans-serif" font-size="14" lengthAdjust="spacing" textLength="53" x="360.5" y="512.5332">Frame 4</text><!--MD5=[46d996859f59e5baf77956ce93023cee]
link HTTP to First Component--><path d="M213,66 C201.22,66 189.44,66 177.67,66 " fill="none" id="HTTP-First Component" style="stroke:#A80036;stroke-width:1.0;"/><!--MD5=[1966a42bb49d59057147dbda06282f4b]
link FTP to Second Component--><path d="M82.43,195 C94.06,195 105.7,195 117.33,195 " fill="none" id="FTP-Second Component" style="stroke:#A80036;stroke-width:1.0;"/><!--MD5=[d3aefbd8005e27b21e7ce98ddd948193]
link First Component to FTP--><path d="M99.13,90.29 C92.41,116.96 81.64,159.71 76.27,181.03 " fill="none" id="First Component-to-FTP" style="stroke:#A80036;stroke-width:1.0;"/><polygon fill="#A80036" points="75.02,185.97,81.0888,178.2131,76.236,181.1201,73.329,176.2674,75.02,185.97" style="stroke:#A80036;stroke-width:1.0;"/><!--MD5=[efc1ffe8b578a0fb156c7bce303319bb]
link Another Component to Example 1--><path d="M357.7,90.29 C364.75,111.6 375.19,143.16 382.69,165.86 " fill="none" id="Another Component-to-Example 1" style="stroke:#A80036;stroke-width:1.0;"/><polygon fill="#A80036" points="384.35,170.85,385.3252,161.0495,382.7817,166.1023,377.7289,163.5588,384.35,170.85" style="stroke:#A80036;stroke-width:1.0;"/><!--MD5=[7ec8393a78a133520e8846dd05a7857a]
link Example 1 to Folder 3--><path d="M392,219.29 C392,252.42 392,313.06 392,348.72 " fill="none" id="Example 1-to-Folder 3" style="stroke:#A80036;stroke-width:1.0;"/><polygon fill="#A80036" points="392,353.8,396,344.8,392,348.8,388,344.8,392,353.8" style="stroke:#A80036;stroke-width:1.0;"/><!--MD5=[b96c7096199393c1414a8b4e9ed2c30f]
link Folder 3 to Frame 4--><path d="M392,402.23 C392,422.25 392,451.2 392,472.59 " fill="none" id="Folder 3-to-Frame 4" style="stroke:#A80036;stroke-width:1.0;"/><polygon fill="#A80036" points="392,477.85,396,468.85,392,472.85,388,468.85,392,477.85" style="stroke:#A80036;stroke-width:1.0;"/><!--MD5=[b27d6811a47689f6f5ac8e496e1668ab]
@startuml

package "Some Group" {
  HTTP - [First Component]
  [Another Component]
}

node "Other Groups" {
  FTP - [Second Component]
  [First Component] - -> FTP
}

cloud {
  [Example 1]
}


database "MySql" {
  folder "This is my folder" {
    [Folder 3]
  }
  frame "Foo" {
    [Frame 4]
  }
}


[Another Component] - -> [Example 1]
[Example 1] - -> [Folder 3]
[Folder 3] - -> [Frame 4]

@enduml

PlantUML version 1.2021.00(Sun Jan 10 05:25:05 EST 2021)
(GPL source distribution)
Java Runtime: OpenJDK Runtime Environment
JVM: OpenJDK 64-Bit Server VM
Default Encoding: Cp1252
Language: en
Country: US
--></g></svg>